<?xml version="1.0" encoding="utf-8"?>
<!-- Generator: Adobe Illustrator 22.1.0, SVG Export Plug-In . SVG Version: 6.00 Build 0)  -->
<svg version="1.1" id="Layer_1" xmlns="http://www.w3.org/2000/svg" xmlns:xlink="http://www.w3.org/1999/xlink" x="0px" y="0px"
	 viewBox="0 0 841.9 595.3" style="enable-background:new 0 0 841.9 595.3;" xml:space="preserve">
<style type="text/css">
	.st0{fill:#009640;}
	.st1{fill:#FFFFFF;}
</style>
<g>
	<g>
		<rect x="97" y="81.8" class="st0" width="648" height="431.7"/>
	</g>
	<g>
		<path class="st1" d="M742.1,84.6v426.1H420.9H99.8V84.6h321.2H742.1 M747.7,79h-5.6H420.9H99.8h-5.6v5.6v426.1v5.6h5.6h321.2
			h321.2h5.6v-5.6V84.6V79L747.7,79z"/>
	</g>
</g>
<g>
	<rect x="99.8" y="84.6" class="st0" width="321.2" height="426.1"/>
	<path class="st1" d="M421.3,511.1H99.4V84.2h321.9V511.1z M100.1,510.4h320.5V84.9H100.1V510.4z"/>
</g>
<g>
	<path class="st0" d="M99.8,510.7h22.2c0.1-0.7,0.1-1.4,0.1-2.1c0-12.3-10-22.3-22.3-22.3V510.7z"/>
	<path class="st1" d="M122.2,511.1H99.4V486h0.3c12.5,0,22.6,10.1,22.6,22.6c0,0.7,0,1.4-0.1,2.2L122.2,511.1z M100.1,510.4h21.5
		c0.1-0.6,0.1-1.2,0.1-1.8c0-12-9.6-21.7-21.6-21.9V510.4z"/>
</g>
<g>
	<path class="st0" d="M99.8,84.6v23.3c12.3,0,22.3-10,22.3-22.3c0-0.4,0-0.7-0.1-1.1H99.8z"/>
	<path class="st1" d="M99.8,108.2h-0.3v-24h22.9l0,0.3c0,0.1,0,0.2,0,0.4c0,0.2,0,0.5,0,0.7C122.4,98.1,112.2,108.2,99.8,108.2z
		 M100.1,84.9v22.6c11.9-0.2,21.6-9.9,21.6-21.9c0-0.2,0-0.4,0-0.7c0,0,0,0,0,0H100.1z"/>
</g>
<g>
	<rect x="99.8" y="243.6" class="st0" width="33.9" height="109.5"/>
	<path class="st1" d="M134,353.5H99.4V243.2H134V353.5z M100.1,352.8h33.2V243.9h-33.2V352.8z"/>
</g>
<g>
	<rect x="99.8" y="176.4" class="st0" width="100.4" height="242.4"/>
	<path class="st1" d="M200.4,419.2h-101V176.1h101V419.2z M100.1,418.5h99.7V176.8h-99.7V418.5z"/>
</g>
<g>
	<path class="st1" d="M200.3,344.2l-0.4-0.6c0.2-0.2,23.2-15.8,23.2-46c0-30.2-22.9-43-23.1-43.2l0.3-0.6
		c0.2,0.1,23.5,13.2,23.5,43.8C223.8,328.2,200.5,344.1,200.3,344.2z"/>
</g>
<g>
	<path class="st1" d="M420.9,357c-32.7,0-59.4-26.6-59.4-59.4c0-32.7,26.6-59.4,59.4-59.4s59.4,26.6,59.4,59.4
		C480.3,330.4,453.7,357,420.9,357z M420.9,239c-32.3,0-58.7,26.3-58.7,58.7s26.3,58.7,58.7,58.7c32.3,0,58.7-26.3,58.7-58.7
		S453.3,239,420.9,239z"/>
</g>
<g>
	<circle class="st1" cx="420.9" cy="297.6" r="3.9"/>
</g>
<g>
	
		<rect x="420.9" y="84.6" transform="matrix(-1 -4.489221e-11 4.489221e-11 -1 1163.0836 595.2756)" class="st0" width="321.2" height="426.1"/>
	<path class="st1" d="M742.5,511.1H420.6V84.2h321.9V511.1z M421.3,510.4h320.5V84.9H421.3V510.4z"/>
</g>
<g>
	<path class="st0" d="M742.1,510.7H720c-0.1-0.7-0.1-1.4-0.1-2.1c0-12.3,10-22.3,22.3-22.3V510.7z"/>
	<path class="st1" d="M742.5,511.1h-22.8l0-0.3c-0.1-0.8-0.1-1.5-0.1-2.2c0-12.5,10.1-22.6,22.6-22.6h0.3V511.1z M720.3,510.4h21.5
		v-23.7c-11.9,0.2-21.6,9.9-21.6,21.9C720.2,509.1,720.3,509.7,720.3,510.4z"/>
</g>
<g>
	<path class="st0" d="M742.1,84.6v23.3c-12.3,0-22.3-10-22.3-22.3c0-0.4,0-0.7,0.1-1.1H742.1z"/>
	<path class="st1" d="M742.5,108.2h-0.3c-12.5,0-22.6-10.1-22.6-22.6c0-0.2,0-0.5,0-0.7c0-0.1,0-0.2,0-0.4l0-0.3h22.9V108.2z
		 M720.3,84.9C720.3,84.9,720.3,85,720.3,84.9c0,0.3,0,0.5,0,0.7c0,12,9.6,21.7,21.6,21.9V84.9H720.3z"/>
</g>
<g>
	
		<rect x="708.2" y="243.6" transform="matrix(-1 -4.493662e-11 4.493662e-11 -1 1450.356 596.689)" class="st0" width="33.9" height="109.5"/>
	<path class="st1" d="M742.5,353.5h-34.6V243.2h34.6V353.5z M708.6,352.8h33.2V243.9h-33.2V352.8z"/>
</g>
<g>
	
		<rect x="641.8" y="176.4" transform="matrix(-1 -4.489887e-11 4.489887e-11 -1 1383.9265 595.2756)" class="st0" width="100.4" height="242.4"/>
	<path class="st1" d="M742.5,419.2h-101V176.1h101V419.2z M642.1,418.5h99.7V176.8h-99.7V418.5z"/>
</g>
<g>
	<path class="st1" d="M641.6,344.2c-0.2-0.2-23.5-16-23.5-46.6c0-30.6,23.3-43.6,23.5-43.8l0.3,0.6c-0.2,0.1-23.1,13-23.1,43.2
		c0,30.2,22.9,45.8,23.2,46L641.6,344.2z"/>
</g>
<g>
	<path class="st1" d="M420.9,357c-32.7,0-59.4-26.6-59.4-59.4c0-32.7,26.6-59.4,59.4-59.4s59.4,26.6,59.4,59.4
		C480.3,330.4,453.7,357,420.9,357z M420.9,239c-32.3,0-58.7,26.3-58.7,58.7s26.3,58.7,58.7,58.7c32.3,0,58.7-26.3,58.7-58.7
		S453.3,239,420.9,239z"/>
</g>
<g>
	<circle class="st1" cx="420.9" cy="297.6" r="3.9"/>
</g>
</svg>
