<?xml version="1.0" encoding="utf-8"?>
<!-- Generator: Adobe Illustrator 22.1.0, SVG Export Plug-In . SVG Version: 6.00 Build 0)  -->
<svg version="1.1" id="Layer_1" xmlns="http://www.w3.org/2000/svg" xmlns:xlink="http://www.w3.org/1999/xlink" x="0px" y="0px"
	 viewBox="0 0 841.9 595.3" style="enable-background:new 0 0 841.9 595.3;" xml:space="preserve">
<style type="text/css">
	.st0{fill:#009640;}
	.st1{fill:#FFFFFF;}
</style>
<g>
	<g>
		<g>
			<rect x="204.2" y="154" class="st0" width="433.5" height="289.5"/>
		</g>
		<g>
			<path class="st1" d="M634.9,156.9v283.8H420.9H207V156.9h213.9H634.9 M640.5,151.2h-5.6H420.9H207h-5.6v5.6v283.8v5.6h5.6h213.9
				h213.9h5.6v-5.6V156.9V151.2L640.5,151.2z"/>
		</g>
	</g>
	<g>
		<rect x="207" y="156.9" class="st0" width="213.9" height="283.8"/>
		<path class="st1" d="M421.3,441.1H206.6V156.5h214.6V441.1z M207.4,440.4h213.2V157.2H207.4V440.4z"/>
	</g>
	<g>
		<rect x="207" y="262.8" class="st0" width="22.6" height="73"/>
		<path class="st1" d="M230,336.1h-23.3v-73.7H230V336.1z M207.4,335.4h21.9v-72.3h-21.9V335.4z"/>
	</g>
	<g>
		<rect x="207" y="218.1" class="st0" width="66.8" height="161.5"/>
		<path class="st1" d="M274.2,379.9h-67.5V217.7h67.5V379.9z M207.4,379.2h66.1V218.4h-66.1V379.2z"/>
	</g>
	<g>
		<circle class="st1" cx="420.9" cy="298.8" r="2.6"/>
	</g>
	<g>
		
			<rect x="420.9" y="156.9" transform="matrix(-1 -4.488333e-11 4.488333e-11 -1 1055.8319 597.566)" class="st0" width="213.9" height="283.8"/>
		<path class="st1" d="M635.2,441.1H420.6V156.5h214.6V441.1z M421.3,440.4h213.2V157.2H421.3V440.4z"/>
	</g>
	<g>
		
			<rect x="612.3" y="262.8" transform="matrix(-1 -4.492241e-11 4.492241e-11 -1 1247.1794 598.5074)" class="st0" width="22.6" height="73"/>
		<path class="st1" d="M635.2,336.1h-23.3v-73.7h23.3V336.1z M612.6,335.4h21.9v-72.3h-21.9V335.4z"/>
	</g>
	<g>
		
			<rect x="568" y="218.1" transform="matrix(-1 -4.487489e-11 4.487489e-11 -1 1202.9319 597.566)" class="st0" width="66.8" height="161.5"/>
		<path class="st1" d="M635.2,379.9h-67.5V217.7h67.5V379.9z M568.4,379.2h66.1V218.4h-66.1V379.2z"/>
	</g>
	<g>
		<path class="st1" d="M420.9,356.3c-31.7,0-57.5-25.8-57.5-57.5s25.8-57.5,57.5-57.5s57.5,25.8,57.5,57.5S452.7,356.3,420.9,356.3z
			 M420.9,241.9c-31.3,0-56.8,25.5-56.8,56.8s25.5,56.8,56.8,56.8s56.8-25.5,56.8-56.8S452.3,241.9,420.9,241.9z"/>
	</g>
	<g>
		<circle class="st1" cx="420.9" cy="298.8" r="2.6"/>
	</g>
</g>
</svg>
